<?xml version="1.0" encoding="iso-8859-1"?>
<!-- Generator: Adobe Illustrator 19.0.0, SVG Export Plug-In . SVG Version: 6.00 Build 0)  -->
<svg version="1.1" id="Capa_1" xmlns="http://www.w3.org/2000/svg" xmlns:xlink="http://www.w3.org/1999/xlink" x="0px" y="0px"
	 viewBox="0 0 512 512" style="enable-background:new 0 0 512 512;" xml:space="preserve">
<g>
	<path style="fill:#FFEA84;" d="M256,80L256,80c-16.569,0-30-13.431-30-30V30c0-16.569,13.431-30,30-30l0,0
		c16.569,0,30,13.431,30,30v20C286,66.569,272.569,80,256,80z"/>
	<path style="fill:#FFEA84;" d="M285.5,376l20-155h30v-80c0-33.137-26.863-61-60-61h-39c-33.137,0-60,27.863-60,61v80h30l20,155"/>
</g>
<g>
	<path style="fill:#FFDC40;" d="M286,50V30c0-16.569-13.431-30-30-30v80C272.569,80,286,66.569,286,50z"/>
	<path style="fill:#FFDC40;" d="M275.5,80H256v296h29.5l20-155h30v-80C335.5,107.863,308.637,80,275.5,80z"/>
</g>
<path style="fill:#9E7957;" d="M351,502H161V362h190V502z"/>
<path style="fill:#936C4C;" d="M351,502h-95V362h95V502z"/>
<g>
	<rect x="201" y="407" style="fill:#FFEA84;" width="110" height="30"/>
	<rect x="126" y="482" style="fill:#FFEA84;" width="260" height="30"/>
</g>
<g>
	<rect x="256" y="482" style="fill:#FFDC40;" width="130" height="30"/>
	<rect x="256" y="407" style="fill:#FFDC40;" width="55" height="30"/>
</g>
<g>
</g>
<g>
</g>
<g>
</g>
<g>
</g>
<g>
</g>
<g>
</g>
<g>
</g>
<g>
</g>
<g>
</g>
<g>
</g>
<g>
</g>
<g>
</g>
<g>
</g>
<g>
</g>
<g>
</g>
</svg>
